<?xml version="1.0" standalone="no"?>
<!DOCTYPE svg PUBLIC "-//W3C//DTD SVG 20010904//EN"
 "http://www.w3.org/TR/2001/REC-SVG-20010904/DTD/svg10.dtd">
<svg version="1.0" xmlns="http://www.w3.org/2000/svg"
 width="5058.000000pt" height="5058.000000pt" viewBox="0 0 5058.000000 5058.000000"
 preserveAspectRatio="xMidYMid meet">
<metadata>
Created by potrace 1.14, written by Peter Selinger 2001-2017
</metadata>
<g transform="translate(0.000000,5058.000000) scale(0.100000,-0.100000)"
fill="#000000" stroke="none">
<path d="M24997 49874 c-1 -1 -139 -4 -307 -7 -168 -3 -363 -8 -435 -11 -277
-11 -392 -16 -455 -21 -36 -2 -112 -7 -170 -11 -158 -9 -219 -13 -290 -19 -36
-3 -92 -8 -125 -10 -88 -6 -279 -23 -345 -30 -25 -3 -74 -7 -110 -10 -75 -6
-141 -12 -202 -20 -24 -3 -70 -8 -103 -10 -33 -3 -76 -7 -95 -10 -19 -2 -60
-7 -90 -10 -30 -3 -66 -8 -80 -10 -14 -2 -43 -7 -65 -9 -72 -9 -139 -18 -170
-22 -16 -3 -46 -7 -65 -9 -19 -2 -55 -6 -80 -10 -25 -3 -63 -8 -85 -10 -78 -8
-141 -16 -185 -26 -25 -5 -94 -16 -155 -23 -60 -8 -121 -17 -135 -21 -14 -3
-59 -10 -100 -15 -41 -5 -91 -14 -110 -19 -19 -6 -47 -12 -63 -15 -15 -3 -53
-10 -85 -15 -31 -6 -75 -13 -97 -17 -22 -3 -58 -9 -80 -14 -22 -5 -69 -14
-105 -19 -92 -15 -117 -20 -186 -36 -80 -18 -109 -24 -163 -31 -25 -3 -48 -7
-51 -9 -4 -2 -20 -7 -36 -9 -16 -3 -38 -8 -49 -10 -11 -3 -69 -14 -130 -26
-60 -12 -162 -33 -225 -47 -63 -13 -125 -27 -137 -29 -12 -2 -71 -16 -130 -30
-60 -14 -119 -28 -133 -30 -14 -3 -95 -23 -180 -45 -85 -22 -202 -51 -260 -66
-111 -27 -196 -49 -530 -137 -389 -103 -435 -116 -455 -126 -11 -5 -49 -17
-85 -26 -35 -8 -71 -19 -80 -24 -8 -4 -29 -10 -46 -13 -17 -3 -39 -9 -50 -15
-20 -11 -186 -63 -264 -82 -25 -7 -51 -17 -57 -22 -7 -6 -13 -8 -13 -5 0 3
-25 -3 -55 -13 -30 -10 -55 -17 -55 -14 0 2 -13 -2 -29 -10 -16 -9 -59 -24
-97 -35 -38 -11 -103 -30 -144 -41 -41 -12 -79 -26 -84 -31 -6 -5 -16 -9 -24
-9 -8 0 -28 -6 -45 -14 -47 -20 -121 -46 -147 -51 -12 -2 -27 -8 -34 -14 -6
-5 -67 -28 -136 -51 -69 -23 -138 -48 -155 -55 -16 -7 -73 -28 -125 -45 -203
-69 -293 -104 -362 -141 -21 -11 -41 -20 -45 -21 -5 0 -18 -4 -31 -9 -13 -5
-29 -9 -36 -9 -7 0 -15 -3 -19 -6 -3 -3 -41 -19 -84 -34 -43 -15 -87 -32 -98
-37 -11 -6 -36 -17 -55 -25 -19 -8 -46 -20 -60 -27 -14 -6 -56 -22 -95 -37
-38 -14 -92 -36 -120 -49 -27 -12 -72 -31 -100 -41 -27 -9 -57 -23 -66 -31 -8
-7 -20 -13 -25 -13 -5 0 -34 -12 -64 -28 -30 -15 -82 -38 -115 -51 -33 -13
-107 -46 -165 -73 -116 -54 -123 -58 -195 -88 -27 -12 -77 -34 -110 -50 -33
-15 -64 -30 -70 -31 -5 -2 -35 -17 -65 -33 -30 -17 -59 -31 -65 -32 -5 -1 -34
-16 -63 -33 -29 -17 -56 -31 -60 -31 -4 0 -20 -7 -37 -16 -16 -9 -59 -27 -95
-41 -36 -13 -72 -31 -80 -38 -22 -20 -161 -91 -192 -99 -16 -3 -56 -24 -89
-46 -34 -22 -66 -40 -70 -40 -5 0 -31 -13 -59 -30 -28 -16 -55 -30 -61 -30 -6
0 -29 -13 -52 -29 -23 -15 -59 -34 -79 -40 -21 -7 -38 -17 -38 -22 0 -5 -8 -9
-19 -9 -10 0 -29 -8 -42 -19 -13 -10 -58 -36 -99 -58 -41 -22 -93 -51 -115
-64 -22 -14 -66 -38 -97 -52 -32 -15 -77 -40 -100 -56 -49 -33 -115 -70 -208
-118 -36 -19 -92 -52 -125 -73 -33 -22 -67 -43 -75 -47 -8 -4 -38 -22 -67 -40
-29 -18 -55 -33 -59 -33 -4 0 -30 -15 -58 -34 -28 -18 -70 -44 -93 -56 -44
-23 -199 -121 -220 -139 -7 -6 -14 -11 -17 -11 -3 0 -45 -25 -93 -56 -145 -94
-187 -119 -213 -132 -14 -7 -72 -46 -130 -87 -58 -42 -116 -80 -129 -86 -13
-5 -41 -23 -61 -39 -21 -17 -41 -30 -45 -30 -3 0 -45 -27 -93 -60 -48 -33 -94
-65 -102 -70 -8 -6 -62 -44 -120 -85 -111 -78 -113 -80 -172 -119 -55 -37
-102 -70 -108 -77 -3 -3 -40 -29 -84 -58 -43 -29 -83 -56 -90 -62 -22 -18
-263 -197 -361 -267 -118 -85 -260 -194 -295 -226 -14 -13 -65 -51 -115 -86
-49 -35 -108 -80 -130 -100 -22 -20 -67 -58 -101 -83 -34 -25 -103 -83 -155
-128 -52 -45 -119 -98 -149 -119 -30 -21 -75 -57 -99 -79 -24 -23 -47 -41 -50
-41 -4 0 -31 -23 -61 -52 -30 -29 -68 -62 -85 -75 -16 -13 -50 -41 -75 -63
-83 -73 -145 -125 -190 -162 -25 -20 -66 -56 -92 -80 -25 -24 -104 -95 -174
-158 -71 -63 -158 -144 -194 -180 -36 -36 -94 -89 -130 -118 -36 -29 -68 -56
-72 -60 -5 -4 -32 -32 -61 -62 -30 -30 -59 -59 -65 -65 -7 -5 -38 -38 -70 -72
-32 -35 -61 -63 -64 -63 -3 0 -61 -57 -129 -126 -68 -69 -130 -131 -137 -138
-32 -27 -389 -393 -592 -607 -58 -60 -138 -150 -265 -295 -5 -6 -42 -47 -81
-90 -110 -122 -306 -346 -339 -390 -16 -21 -64 -77 -105 -125 -41 -48 -106
-124 -145 -170 -38 -46 -85 -98 -103 -118 -17 -19 -32 -37 -32 -40 0 -3 -11
-19 -25 -36 -35 -42 -38 -47 -58 -78 -10 -15 -39 -52 -65 -81 -64 -72 -69 -78
-170 -218 -49 -68 -108 -143 -130 -166 -23 -24 -62 -72 -86 -105 -25 -34 -49
-66 -53 -72 -9 -11 -77 -108 -151 -215 -25 -36 -55 -75 -68 -88 -13 -13 -24
-26 -24 -31 0 -4 -8 -16 -18 -27 -10 -10 -55 -73 -102 -139 -46 -66 -90 -126
-97 -133 -7 -7 -13 -17 -13 -21 0 -4 -8 -16 -19 -27 -10 -11 -31 -40 -46 -65
-16 -24 -31 -46 -35 -49 -4 -3 -26 -39 -51 -80 -24 -41 -46 -77 -49 -80 -11
-9 -84 -115 -155 -222 -154 -234 -364 -557 -411 -633 -50 -81 -54 -88 -107
-183 -16 -29 -49 -83 -74 -119 -24 -36 -48 -76 -53 -89 -5 -13 -38 -66 -72
-117 -34 -50 -80 -126 -101 -167 -22 -41 -48 -86 -58 -99 -11 -13 -19 -30 -19
-38 0 -8 -16 -39 -35 -69 -19 -30 -35 -56 -35 -59 0 -3 -15 -28 -32 -57 -30
-48 -56 -98 -72 -138 -4 -8 -18 -35 -32 -60 -14 -25 -45 -81 -68 -125 -52 -96
-85 -157 -96 -170 -4 -5 -43 -77 -85 -160 -42 -82 -81 -154 -86 -159 -5 -6 -9
-16 -9 -23 0 -11 -78 -176 -115 -243 -8 -14 -25 -47 -38 -75 -12 -27 -28 -59
-35 -70 -6 -11 -19 -38 -28 -60 -31 -74 -118 -258 -160 -340 -39 -74 -82 -170
-115 -250 -18 -44 -40 -92 -51 -107 -10 -14 -18 -30 -18 -35 -1 -4 -9 -26 -20
-48 -11 -22 -19 -47 -20 -55 0 -9 -4 -20 -9 -25 -5 -6 -14 -28 -21 -50 -7 -22
-23 -60 -36 -85 -13 -25 -24 -50 -24 -57 0 -18 -54 -147 -62 -151 -5 -2 -8
-11 -8 -20 0 -9 -7 -30 -15 -46 -8 -15 -15 -33 -15 -38 0 -14 -27 -76 -60
-135 -13 -25 -35 -79 -55 -138 -9 -27 -23 -65 -31 -82 -41 -91 -68 -162 -84
-218 -13 -42 -72 -199 -94 -250 -8 -16 -17 -46 -21 -65 -8 -36 -64 -191 -90
-247 -8 -17 -15 -35 -15 -40 0 -6 -6 -23 -14 -39 -8 -16 -17 -46 -20 -67 -3
-21 -13 -51 -21 -66 -8 -16 -22 -59 -31 -97 -9 -38 -21 -74 -26 -80 -5 -7 -11
-21 -13 -33 -3 -12 -7 -29 -9 -40 -10 -45 -69 -218 -82 -244 -8 -15 -17 -35
-19 -45 -17 -79 -39 -161 -54 -201 -11 -26 -21 -60 -24 -77 -3 -16 -12 -49
-21 -74 -21 -55 -21 -56 -31 -105 -4 -22 -13 -52 -21 -66 -7 -14 -24 -74 -38
-135 -15 -60 -29 -118 -32 -129 -3 -11 -18 -67 -34 -125 -16 -58 -37 -136 -48
-175 -11 -38 -39 -151 -62 -250 -23 -99 -46 -191 -51 -205 -9 -27 -57 -209
-63 -244 -2 -11 -9 -41 -16 -66 -7 -25 -14 -56 -16 -70 -3 -14 -7 -33 -10 -42
-9 -29 -16 -62 -29 -128 -11 -61 -19 -93 -66 -284 -10 -44 -19 -90 -19 -103 0
-13 -11 -74 -24 -136 -13 -62 -29 -141 -35 -177 -16 -90 -20 -109 -31 -160 -5
-25 -12 -65 -16 -90 -3 -25 -8 -54 -11 -65 -2 -11 -8 -47 -13 -80 -5 -33 -12
-71 -15 -85 -3 -14 -10 -56 -15 -95 -6 -38 -15 -86 -19 -105 -8 -30 -16 -86
-27 -175 -1 -11 -5 -38 -9 -60 -4 -22 -10 -67 -15 -100 -5 -33 -11 -73 -15
-90 -7 -37 -35 -235 -40 -290 -6 -63 -14 -124 -31 -240 -4 -26 -22 -179 -39
-330 -3 -27 -7 -63 -10 -80 -2 -16 -7 -68 -11 -115 -3 -47 -8 -98 -10 -115 -6
-59 -15 -161 -19 -215 -6 -87 -16 -200 -21 -260 -3 -30 -7 -86 -9 -125 -3 -38
-7 -104 -9 -145 -12 -174 -18 -271 -21 -360 -2 -52 -7 -160 -10 -240 -3 -80
-8 -203 -10 -275 -6 -166 -6 -1196 0 -1335 2 -58 7 -177 10 -265 3 -88 7 -198
10 -245 2 -47 7 -137 10 -200 3 -63 8 -144 10 -179 3 -35 7 -100 10 -145 4
-44 7 -97 9 -116 6 -65 17 -205 21 -260 13 -180 70 -732 86 -832 13 -81 16
-107 24 -178 20 -180 40 -330 51 -385 2 -11 11 -67 20 -125 17 -112 17 -113
34 -234 6 -44 13 -83 15 -87 3 -4 9 -35 15 -70 17 -113 39 -242 54 -324 8 -44
17 -96 20 -115 9 -50 34 -179 56 -290 11 -52 24 -122 29 -155 13 -74 19 -108
32 -160 5 -22 12 -51 15 -65 2 -14 7 -32 10 -40 3 -8 10 -37 16 -65 5 -27 14
-68 19 -90 5 -22 12 -51 14 -63 5 -21 71 -292 81 -332 2 -8 37 -148 78 -310
40 -162 85 -335 99 -385 14 -49 27 -101 30 -115 13 -65 80 -316 87 -325 7 -9
14 -34 25 -95 3 -14 27 -95 54 -180 27 -85 57 -186 67 -224 10 -37 23 -74 31
-81 7 -8 13 -20 13 -28 0 -8 12 -50 26 -93 14 -44 27 -83 28 -89 10 -42 29
-102 36 -110 6 -8 33 -105 35 -125 0 -3 7 -24 17 -45 20 -50 61 -183 57 -187
-2 -2 4 -16 13 -33 24 -44 76 -173 82 -208 7 -32 29 -103 35 -112 8 -11 50
-125 101 -275 35 -106 50 -142 86 -213 13 -27 24 -56 24 -64 0 -9 10 -37 22
-62 47 -100 77 -168 98 -221 11 -30 25 -64 30 -75 55 -127 120 -289 120 -298
0 -7 8 -28 19 -47 10 -19 49 -107 86 -195 37 -88 81 -188 96 -223 16 -34 29
-65 29 -70 0 -4 9 -18 20 -32 11 -14 20 -32 20 -41 0 -9 7 -19 15 -23 8 -3 15
-13 15 -22 0 -9 7 -28 15 -42 13 -25 47 -101 49 -112 2 -9 37 -84 63 -135 14
-27 37 -72 50 -100 13 -27 30 -61 38 -75 39 -71 115 -234 115 -246 0 -4 13
-28 29 -54 16 -27 40 -72 52 -101 13 -30 33 -71 46 -92 56 -90 154 -269 256
-468 24 -47 53 -99 64 -115 11 -16 24 -40 28 -54 4 -14 23 -47 41 -75 19 -27
34 -55 34 -60 0 -6 12 -27 26 -46 14 -19 39 -61 55 -95 16 -34 53 -97 82 -140
28 -43 61 -97 72 -119 11 -22 43 -75 72 -117 29 -43 53 -82 53 -87 0 -5 6 -16
13 -23 7 -7 18 -24 25 -38 6 -14 18 -34 24 -45 58 -90 161 -259 183 -300 16
-27 31 -52 35 -55 8 -6 127 -178 151 -218 9 -15 35 -56 58 -92 22 -36 60 -96
83 -135 23 -38 45 -72 48 -75 3 -3 10 -12 15 -21 9 -16 206 -293 222 -314 5
-5 68 -93 141 -195 72 -102 163 -228 202 -280 38 -52 109 -151 157 -218 49
-68 104 -140 124 -160 20 -21 67 -80 105 -132 38 -52 74 -102 81 -110 7 -8 35
-44 62 -80 28 -36 57 -72 64 -80 15 -17 88 -109 99 -125 4 -5 31 -39 61 -75
29 -36 81 -101 116 -145 35 -44 90 -108 122 -142 32 -34 59 -64 59 -67 0 -4 8
-14 18 -24 9 -11 35 -43 57 -73 22 -29 54 -68 71 -86 17 -18 46 -49 64 -70 18
-21 72 -81 120 -133 48 -52 142 -157 209 -232 67 -76 132 -150 145 -164 64
-72 160 -173 295 -311 82 -83 157 -165 166 -181 10 -16 30 -37 46 -46 15 -9
38 -31 51 -49 12 -18 27 -34 33 -36 5 -2 86 -80 179 -172 92 -93 169 -169 171
-169 1 0 69 -66 152 -147 82 -82 174 -170 204 -197 30 -27 88 -81 129 -120 41
-39 106 -98 144 -131 38 -33 97 -85 131 -115 34 -30 71 -62 82 -71 11 -9 26
-25 34 -35 8 -11 34 -35 59 -54 47 -36 170 -141 279 -238 35 -31 72 -64 83
-72 25 -19 151 -123 158 -130 3 -3 21 -16 40 -29 47 -33 152 -122 167 -142 10
-13 102 -85 168 -131 6 -4 30 -24 55 -45 25 -22 79 -63 120 -93 41 -30 98 -72
126 -95 124 -97 246 -190 329 -250 170 -121 234 -170 235 -177 0 -5 6 -8 14
-8 8 0 16 -4 18 -8 2 -6 139 -105 343 -246 17 -12 57 -41 89 -65 32 -24 122
-87 200 -139 78 -52 150 -101 161 -109 132 -89 308 -203 313 -203 4 0 23 -14
42 -30 19 -17 44 -33 55 -36 11 -4 70 -39 130 -79 61 -40 138 -90 172 -111 33
-22 95 -60 136 -86 41 -27 78 -48 82 -48 4 0 24 -13 44 -29 20 -15 59 -39 86
-52 55 -26 144 -79 245 -144 36 -23 90 -55 120 -70 82 -41 111 -58 148 -83 17
-13 67 -42 110 -64 42 -22 88 -48 102 -57 14 -9 66 -37 115 -61 50 -24 97 -50
105 -57 9 -7 61 -35 115 -63 55 -28 111 -57 125 -65 14 -7 63 -32 110 -55 47
-23 103 -55 124 -71 22 -16 46 -29 54 -29 17 0 108 -46 186 -94 33 -20 66 -36
74 -36 8 0 26 -7 40 -15 32 -17 119 -55 127 -55 3 0 22 -11 43 -24 21 -13 63
-34 92 -47 30 -12 68 -31 83 -42 15 -10 33 -20 40 -21 15 -4 61 -24 173 -76
46 -22 88 -40 92 -40 4 0 19 -8 32 -17 21 -15 158 -76 195 -87 18 -5 88 -37
195 -88 137 -65 121 -58 310 -133 156 -62 193 -77 265 -110 77 -35 104 -45
118 -45 9 0 18 -4 21 -9 3 -5 27 -14 53 -20 43 -11 129 -46 177 -72 10 -6 26
-12 35 -14 9 -2 52 -17 96 -33 44 -17 152 -56 240 -88 88 -31 165 -61 170 -65
8 -6 61 -22 110 -34 6 -1 27 -9 47 -19 21 -9 42 -16 48 -16 5 0 27 -9 47 -20
21 -11 45 -20 55 -20 18 0 41 -8 126 -46 28 -13 82 -31 120 -39 91 -22 203
-56 227 -71 19 -12 115 -40 161 -47 10 -1 24 -5 29 -9 6 -3 39 -14 75 -23 36
-9 70 -20 75 -25 6 -4 42 -16 80 -25 90 -22 167 -46 180 -56 6 -4 60 -20 120
-34 61 -15 118 -30 127 -35 14 -8 147 -45 198 -55 55 -11 195 -47 218 -56 15
-6 34 -12 42 -14 8 -2 91 -22 183 -45 93 -23 176 -43 185 -45 42 -8 80 -18
122 -32 25 -8 54 -17 64 -19 11 -2 108 -24 215 -50 108 -25 204 -47 214 -49
10 -2 26 -6 35 -9 9 -3 32 -8 51 -11 19 -3 37 -8 41 -10 4 -2 20 -6 36 -9 16
-3 79 -17 139 -31 61 -14 120 -25 132 -25 12 0 82 -14 155 -31 73 -17 160 -34
193 -39 33 -5 105 -18 160 -30 55 -12 118 -24 140 -26 22 -3 72 -12 110 -21
39 -8 95 -18 125 -23 30 -4 93 -15 140 -24 47 -10 112 -21 145 -26 33 -6 71
-12 85 -16 14 -3 54 -9 90 -14 36 -5 76 -11 90 -15 25 -6 225 -32 313 -40 27
-3 53 -7 58 -10 8 -5 155 -26 189 -27 15 0 91 -9 295 -34 55 -7 79 -9 175 -19
101 -10 152 -15 195 -21 22 -2 60 -6 85 -9 25 -2 70 -6 100 -9 55 -6 129 -12
250 -21 36 -3 88 -7 115 -10 28 -2 86 -7 130 -10 44 -3 100 -8 125 -10 25 -3
97 -8 160 -11 63 -3 133 -7 155 -9 22 -1 108 -5 190 -9 83 -4 182 -9 220 -11
378 -24 1681 -23 2115 0 41 3 136 7 210 11 74 3 153 7 175 9 22 2 97 6 166 9
69 3 143 8 165 10 43 6 137 13 259 21 44 3 100 7 125 10 108 11 150 15 225 21
90 6 128 10 200 19 28 3 70 8 95 10 43 4 86 9 190 21 25 2 65 6 90 9 25 2 54
6 65 9 12 2 93 11 180 21 88 9 189 22 225 29 36 8 72 14 80 14 20 0 168 20
200 27 14 3 43 8 65 10 56 6 174 23 210 30 45 9 302 55 365 64 30 5 91 16 135
26 44 9 98 19 120 21 22 3 77 14 123 25 46 11 107 22 135 25 29 2 60 7 69 10
9 3 25 6 35 8 11 2 48 11 84 20 35 8 141 30 234 47 94 17 173 33 176 35 3 1
16 5 30 7 13 3 63 14 111 26 48 11 98 22 110 25 13 2 61 14 108 26 47 12 96
24 110 26 14 3 79 19 145 36 827 211 935 238 964 244 13 3 40 12 59 20 20 8
74 24 121 35 47 11 129 35 181 53 52 19 113 37 135 40 22 4 54 14 70 21 42 19
176 60 263 80 40 10 75 22 78 26 3 5 13 9 22 9 9 0 29 6 44 14 15 8 75 26 134
41 59 15 114 31 123 35 30 17 86 38 141 55 30 9 63 20 72 26 10 5 66 25 125
44 60 20 117 40 128 45 35 16 99 41 115 45 22 6 102 34 125 45 18 8 93 33 105
35 17 3 166 61 192 75 10 6 23 10 30 10 7 0 38 13 68 30 30 16 64 29 75 30 11
0 33 7 49 15 15 8 33 15 38 15 5 0 30 9 56 21 26 11 63 27 82 35 19 9 44 19
55 24 11 5 79 32 150 60 72 28 146 58 165 66 19 8 44 19 55 24 11 5 64 29 118
55 111 52 187 87 202 91 28 8 176 73 197 85 12 8 43 23 68 33 25 11 72 31 105
46 33 15 80 35 105 45 25 11 56 26 70 36 23 15 276 139 325 159 46 19 133 62
172 84 22 14 65 35 95 47 29 13 76 37 103 55 28 17 93 52 145 79 52 26 140 71
195 100 55 29 141 73 190 99 89 46 105 55 155 87 14 9 59 34 101 56 42 22 108
61 147 86 40 26 72 44 72 41 0 -7 102 50 154 85 58 40 191 120 258 156 31 16
82 46 113 65 31 19 72 44 91 55 19 11 107 67 195 125 89 58 185 119 213 135
45 26 342 221 446 292 19 14 92 62 162 108 69 46 134 91 145 99 15 13 300 217
343 246 63 42 176 122 244 174 64 48 203 152 371 276 72 53 137 105 145 114 8
10 37 33 65 51 27 18 61 42 74 54 13 11 27 21 30 21 3 0 17 10 31 23 14 13 73
60 132 106 59 45 111 88 115 95 5 7 67 59 138 115 72 57 152 122 178 145 27
22 54 44 60 48 7 3 37 30 68 60 30 29 77 71 104 93 27 22 64 55 83 72 19 18
38 33 43 33 5 0 9 4 9 8 0 4 12 15 28 24 15 10 52 41 82 70 76 73 228 210 251
226 10 7 60 52 111 100 50 48 115 108 142 133 139 126 182 167 215 203 20 21
44 46 53 55 9 9 80 77 158 151 78 74 167 162 198 194 31 32 63 64 70 70 68 61
169 165 248 257 12 13 56 57 98 97 42 41 79 80 83 87 5 7 44 51 88 98 44 46
103 110 130 143 28 32 82 93 121 134 117 123 144 153 182 198 21 24 53 62 72
85 19 23 48 53 63 67 16 14 53 57 82 95 52 69 116 146 194 235 153 175 154
176 241 291 30 40 76 96 101 123 25 28 73 89 107 136 83 115 229 301 333 425
27 33 97 130 154 215 58 85 116 169 130 185 26 30 213 288 314 432 64 91 250
371 336 505 67 104 136 201 148 206 4 2 7 9 7 16 0 7 38 70 85 140 46 70 101
157 121 194 20 37 42 74 50 82 7 8 17 27 23 43 6 15 33 60 59 100 27 39 66
103 86 141 21 39 61 106 90 150 66 102 98 156 132 226 15 30 42 78 61 106 18
28 33 55 33 59 0 5 6 16 14 24 13 16 27 41 82 153 16 32 32 58 37 58 4 0 7 6
7 14 0 13 46 106 96 191 13 22 35 65 50 95 15 30 35 66 44 80 15 22 31 49 78
136 6 10 27 55 47 99 20 44 45 96 55 115 10 19 37 73 60 120 36 73 63 128 164
340 10 19 24 46 31 60 24 42 55 118 55 134 0 9 5 16 10 16 6 0 10 8 10 18 0 9
9 28 20 42 11 14 20 29 20 34 0 5 16 43 36 85 20 42 40 85 44 96 13 30 78 171
114 245 17 36 31 67 31 70 0 3 14 39 30 80 16 41 30 77 30 80 1 3 7 19 15 35
16 36 48 112 60 140 5 11 21 56 36 100 14 44 34 91 43 105 22 33 51 98 51 113
0 7 9 30 20 51 11 22 27 61 36 89 9 27 23 61 30 76 8 14 14 35 14 47 0 11 5
25 11 31 6 6 11 17 13 24 3 19 38 112 47 124 3 6 14 35 23 66 9 31 23 69 31
85 8 16 15 35 15 42 0 7 9 41 21 75 12 34 22 69 24 77 3 14 56 144 76 185 5
11 18 52 28 90 10 39 32 111 49 160 17 50 52 158 78 240 27 83 54 161 61 175
7 14 13 32 13 41 0 9 12 51 26 93 14 43 28 89 30 103 3 14 13 51 24 82 38 115
63 199 102 346 22 82 50 188 63 235 30 109 74 281 81 311 3 13 7 35 10 49 9
44 34 142 59 225 21 70 88 348 100 413 2 13 6 31 9 40 3 9 7 28 10 42 3 14 10
43 16 65 5 22 13 56 16 75 5 29 23 111 39 180 40 165 58 246 65 295 5 33 18
103 30 155 11 52 23 113 25 135 2 22 6 47 8 55 4 17 14 71 22 118 11 67 17 99
30 152 7 30 16 86 20 124 8 79 12 107 25 156 5 19 11 58 14 85 4 28 8 57 9 65
7 30 17 86 21 125 3 22 8 51 11 65 5 22 31 213 40 295 2 17 6 44 9 60 8 37 23
150 31 230 3 33 8 70 11 83 2 13 7 49 9 80 2 31 7 75 10 97 3 22 8 63 11 90 3
28 7 68 10 90 2 22 6 58 8 80 3 22 7 65 10 95 3 30 8 87 11 125 3 39 8 99 11
135 3 36 7 83 9 105 6 85 15 192 20 250 3 33 8 105 11 160 3 55 7 123 9 150 3
46 12 232 20 400 24 517 24 1687 0 2080 -2 28 -6 104 -9 170 -3 66 -8 154 -11
195 -9 157 -27 417 -30 455 -2 22 -6 69 -9 105 -3 36 -8 92 -11 125 -3 33 -7
89 -10 125 -8 90 -20 219 -31 320 -3 25 -6 61 -8 80 -2 19 -7 55 -10 80 -4 25
-9 65 -11 90 -9 94 -16 156 -20 180 -2 14 -9 63 -14 110 -6 47 -13 96 -15 110
-7 40 -14 88 -30 215 -9 66 -18 131 -21 145 -3 14 -10 58 -15 98 -5 40 -12 77
-14 81 -3 4 -7 33 -10 65 -3 32 -11 76 -16 97 -6 22 -13 57 -15 77 -13 110
-19 145 -37 232 -11 52 -24 120 -29 150 -4 30 -10 62 -12 70 -2 8 -7 38 -11
65 -8 54 -32 176 -46 240 -5 22 -11 58 -13 80 -3 22 -19 99 -37 170 -17 72
-33 142 -35 158 -2 15 -7 31 -9 36 -3 5 -8 26 -12 47 -3 22 -14 75 -25 119
-11 44 -21 89 -23 100 -2 11 -18 79 -36 150 -18 72 -34 141 -37 155 -2 14 -13
57 -24 95 -22 81 -98 380 -103 410 -11 62 -72 288 -86 320 -8 18 -37 132 -46
180 -4 22 -27 99 -69 235 -14 47 -35 117 -45 155 -11 39 -26 86 -34 105 -8 19
-20 61 -27 93 -7 32 -16 60 -21 63 -4 3 -8 12 -8 21 0 8 -6 29 -14 46 -18 40
-83 252 -90 291 -3 16 -10 34 -16 40 -5 5 -10 16 -10 24 0 8 -7 28 -15 45 -8
18 -26 77 -40 131 -14 55 -40 131 -59 170 -32 66 -87 221 -122 345 -8 30 -22
63 -29 75 -8 11 -15 26 -16 31 -1 6 -5 20 -10 33 -5 13 -12 34 -15 48 -3 13
-10 27 -15 30 -5 3 -9 13 -9 22 0 9 -7 30 -15 45 -8 16 -22 52 -30 80 -8 29
-25 72 -37 97 -12 25 -25 54 -29 65 -4 11 -19 46 -33 78 -14 32 -35 86 -47
120 -20 61 -36 102 -64 162 -8 17 -37 86 -65 155 -28 69 -55 134 -60 145 -5
11 -18 43 -30 70 -12 28 -34 75 -50 105 -16 30 -38 80 -50 110 -25 63 -67 156
-117 253 -19 37 -32 67 -29 67 6 0 -24 66 -50 110 -8 14 -31 59 -50 100 -19
41 -40 84 -46 95 -30 53 -118 241 -118 251 0 3 -16 30 -35 60 -19 30 -35 59
-35 65 0 5 -7 21 -16 34 -9 14 -13 25 -9 25 4 0 0 12 -10 26 -9 14 -18 34 -20
44 -2 10 -15 35 -28 57 -35 53 -72 118 -107 188 -17 33 -41 78 -54 100 -22 36
-109 201 -159 300 -12 22 -24 42 -27 45 -4 3 -10 17 -14 33 -3 15 -11 27 -16
27 -6 0 -10 5 -10 11 0 6 -13 29 -29 53 -16 23 -44 73 -62 111 -18 38 -45 88
-61 111 -15 23 -28 45 -28 48 0 3 -25 44 -55 91 -30 46 -55 86 -55 89 0 3 -16
30 -35 60 -19 30 -35 58 -35 61 0 3 -25 42 -55 87 -30 45 -55 86 -55 90 0 5
-13 28 -28 51 -16 23 -43 69 -61 102 -18 33 -44 74 -57 92 -13 17 -24 35 -24
39 0 3 -24 41 -53 83 -29 42 -56 83 -60 91 -3 8 -33 53 -66 100 -34 47 -83
121 -111 165 -51 83 -127 197 -145 218 -19 21 -75 105 -75 112 0 5 -35 57
-149 220 -71 103 -106 150 -111 155 -3 3 -26 34 -51 70 -44 65 -56 80 -97 128
-12 15 -39 52 -59 82 -21 30 -44 61 -51 68 -6 8 -17 23 -23 34 -12 22 -166
235 -184 254 -5 6 -19 23 -30 38 -11 15 -30 40 -43 54 -28 32 -93 116 -217
278 -33 44 -65 84 -71 89 -7 6 -49 60 -95 120 -45 61 -119 151 -163 201 -45
50 -90 104 -101 119 -11 16 -27 36 -36 44 -9 9 -42 48 -74 86 -33 39 -61 72
-65 75 -3 3 -25 30 -48 60 -24 30 -67 82 -97 115 -30 33 -77 87 -105 120 -29
33 -75 85 -103 116 -113 121 -233 253 -257 283 -48 60 -211 232 -425 451 -33
33 -67 70 -76 80 -9 11 -115 115 -234 230 -222 214 -301 292 -322 316 -25 30
-170 167 -203 191 -19 14 -84 74 -145 133 -60 59 -130 123 -155 143 -25 20
-72 61 -105 93 -33 31 -78 74 -100 95 -22 21 -83 72 -135 114 -52 43 -117 98
-144 124 -28 25 -52 46 -55 46 -4 0 -35 28 -71 63 -69 65 -74 70 -222 185
-146 116 -169 134 -224 182 -60 53 -73 64 -139 112 -28 20 -59 46 -70 58 -11
12 -72 60 -135 106 -63 46 -163 121 -222 166 -59 46 -135 103 -169 128 -35 25
-97 72 -138 105 -79 63 -156 118 -326 235 -55 38 -105 73 -111 78 -6 5 -37 27
-70 48 -32 21 -61 42 -64 45 -3 3 -48 34 -100 70 -52 35 -97 66 -100 69 -17
17 -80 60 -88 60 -6 0 -12 3 -14 8 -1 4 -41 33 -88 63 -47 31 -96 64 -110 73
-277 185 -342 227 -357 233 -10 4 -38 22 -62 40 -24 18 -48 33 -52 33 -5 0
-31 16 -58 35 -26 19 -52 35 -55 35 -4 0 -35 20 -69 44 -34 24 -78 53 -97 64
-19 11 -69 39 -110 62 -41 23 -81 48 -89 54 -15 12 -111 68 -151 88 -14 7 -61
35 -105 63 -122 78 -134 85 -144 85 -6 0 -30 14 -55 30 -24 17 -59 37 -78 44
-18 8 -44 23 -58 33 -14 11 -47 30 -75 43 -27 13 -79 42 -115 63 -109 67 -319
177 -337 177 -6 0 -13 3 -15 8 -4 10 -48 35 -168 94 -58 28 -107 54 -110 58
-7 9 -43 28 -170 90 -58 28 -116 57 -130 65 -14 7 -41 20 -60 28 -82 36 -312
146 -365 174 -11 6 -49 25 -85 41 -36 17 -95 44 -133 61 -37 17 -69 31 -72 31
-3 0 -45 18 -93 41 -48 22 -98 45 -112 51 -14 6 -38 17 -55 24 -16 7 -82 38
-147 68 -64 31 -121 56 -127 56 -6 0 -19 4 -29 9 -9 5 -39 19 -67 31 -27 12
-58 26 -69 32 -10 5 -26 11 -35 13 -14 3 -82 31 -201 81 -67 29 -75 32 -135
54 -33 12 -68 26 -77 31 -10 5 -29 9 -43 9 -14 0 -25 5 -25 10 0 6 -5 10 -12
10 -6 0 -31 9 -55 20 -24 11 -62 28 -85 39 -24 10 -59 26 -80 35 -20 9 -45 16
-55 16 -10 0 -23 4 -29 9 -5 5 -34 16 -64 26 -30 9 -69 23 -87 31 -17 8 -37
14 -45 14 -8 0 -18 4 -24 8 -5 5 -56 24 -114 41 -101 32 -144 48 -202 78 -16
8 -28 12 -28 10 0 -5 -89 26 -153 52 -16 6 -34 11 -42 11 -8 0 -16 4 -19 8 -3
5 -36 17 -73 26 -37 10 -75 21 -84 26 -14 7 -34 14 -114 36 -5 2 -30 10 -55
18 -70 24 -173 56 -198 62 -13 2 -63 18 -110 33 -48 16 -103 32 -122 36 -19 4
-39 11 -45 15 -11 9 -203 67 -380 116 -66 18 -145 40 -175 49 -30 9 -62 18
-70 20 -155 36 -280 68 -300 76 -14 5 -115 32 -225 59 -110 27 -225 56 -255
65 -59 16 -335 82 -515 121 -60 14 -145 33 -188 44 -43 11 -88 20 -101 20 -12
0 -93 16 -179 35 -86 19 -171 37 -189 40 -48 7 -152 27 -213 41 -22 5 -83 16
-130 24 -115 19 -335 59 -405 75 -41 9 -91 18 -110 21 -136 20 -305 46 -360
55 -36 6 -117 17 -180 25 -63 8 -131 17 -150 20 -19 2 -53 6 -75 9 -22 2 -56
6 -75 9 -44 8 -250 35 -310 41 -25 3 -65 7 -90 9 -25 3 -67 7 -95 11 -27 3
-72 8 -100 10 -27 3 -68 7 -90 10 -22 2 -67 7 -100 10 -33 2 -91 7 -130 11
-38 4 -88 8 -110 10 -22 2 -67 6 -100 9 -33 3 -91 8 -130 10 -38 2 -95 7 -125
10 -30 3 -86 8 -125 10 -38 2 -113 7 -165 10 -370 22 -608 32 -1000 41 -237 5
-820 11 -823 8z"/>
</g>
</svg>
